<svg xmlns="http://www.w3.org/2000/svg" viewBox="0 0 1200 1200" role="img" aria-label="Firestarter placeholder">
  <defs>
    <linearGradient id="g" x1="0" x2="0" y1="0" y2="1">
      <stop offset="0%" stop-color="#3E2723"/>
      <stop offset="100%" stop-color="#6D4C41"/>
    </linearGradient>
  </defs>
  <rect width="1200" height="1200" fill="url(#g)"/>
  <g transform="translate(300 250)">
    <path fill="#FF6E40" d="M300 0c60 120-40 160-40 250 0 120 100 150 100 270 0 120-100 230-230 230S0 760 0 640c0-150 160-230 210-360 40-100 0-150 0-150s120 40 150 20c30-20 30-150-60-150z" opacity="0.9"/>
    <path fill="#F5F5DC" d="M260 420c40 60-20 90-20 150 0 60-50 110-110 110S20 630 20 570c0-80 80-120 110-190 20-50 0-80 0-80s70 30 90 15c20-15 20-80-30-105 40 10 100 70 70 130-20 40-70 60-70 110 0 50 40 60 70 100z"/>
  </g>
  <text x="50%" y="92%" text-anchor="middle" font-family="Inter, Arial, sans-serif" font-size="64" fill="#F5F5DC" opacity="0.9">Slowburn Wood Co.</text>
</svg>


